<?xml version="1.0" encoding="UTF-8" standalone="no"?>
<!DOCTYPE svg PUBLIC "-//W3C//DTD SVG 1.1//EN"
 "http://www.w3.org/Graphics/SVG/1.1/DTD/svg11.dtd">
<!-- Generated by graphviz version 2.43.0 (0)
 -->
<!-- Title: pipeline_dag Pages: 1 -->
<svg width="1035pt" height="578pt"
 viewBox="0.00 0.00 1034.60 578.40" xmlns="http://www.w3.org/2000/svg" xmlns:xlink="http://www.w3.org/1999/xlink">
<g id="graph0" class="graph" transform="scale(1 1) rotate(0) translate(4 574.4)">
<title>pipeline_dag</title>
<polygon fill="white" stroke="transparent" points="-4,4 -4,-574.4 1030.6,-574.4 1030.6,4 -4,4"/>
<!-- p0 -->
<g id="node1" class="node">
<title>p0</title>
<ellipse fill="black" stroke="black" cx="789.6" cy="-551.8" rx="3.6" ry="3.6"/>
<text text-anchor="middle" x="706" y="-559.2" font-family="Times,serif" font-size="14.00">Channel.fromFilePairs</text>
</g>
<!-- p1 -->
<g id="node2" class="node">
<title>p1</title>
<ellipse fill="none" stroke="black" cx="789.6" cy="-507.6" rx="3.5" ry="3.5"/>
<text text-anchor="middle" x="770.6" y="-514.9" font-family="Times,serif" font-size="14.00">map</text>
</g>
<!-- p0&#45;&gt;p1 -->
<g id="edge1" class="edge">
<title>p0&#45;&gt;p1</title>
<path fill="none" stroke="black" d="M789.6,-548.03C789.6,-542.73 789.6,-530.83 789.6,-521.48"/>
<polygon fill="black" stroke="black" points="793.1,-521.43 789.6,-511.43 786.1,-521.43 793.1,-521.43"/>
</g>
<!-- p12 -->
<g id="node3" class="node">
<title>p12</title>
<ellipse fill="none" stroke="black" cx="844.6" cy="-435" rx="48.99" ry="18"/>
<text text-anchor="middle" x="844.6" y="-431.3" font-family="Times,serif" font-size="14.00">FASTQC</text>
</g>
<!-- p1&#45;&gt;p12 -->
<g id="edge2" class="edge">
<title>p1&#45;&gt;p12</title>
<path fill="none" stroke="black" d="M792.77,-505.68C799.85,-503.48 817.08,-497.21 826.6,-486 832.14,-479.47 836.03,-471.11 838.74,-463.09"/>
<polygon fill="black" stroke="black" points="842.16,-463.87 841.57,-453.3 835.43,-461.93 842.16,-463.87"/>
<text text-anchor="middle" x="881.6" y="-474.8" font-family="Times,serif" font-size="14.00">raw_fastq_ch</text>
</g>
<!-- p15 -->
<g id="node16" class="node">
<title>p15</title>
<ellipse fill="none" stroke="black" cx="683.6" cy="-435" rx="86.38" ry="18"/>
<text text-anchor="middle" x="683.6" y="-431.3" font-family="Times,serif" font-size="14.00">BBMAP_BBDUK</text>
</g>
<!-- p1&#45;&gt;p15 -->
<g id="edge15" class="edge">
<title>p1&#45;&gt;p15</title>
<path fill="none" stroke="black" d="M786.3,-506.09C776.7,-504.5 748.21,-498.9 728.6,-486 718.44,-479.32 709.1,-469.8 701.6,-460.86"/>
<polygon fill="black" stroke="black" points="704.22,-458.54 695.25,-452.91 698.75,-462.9 704.22,-458.54"/>
<text text-anchor="middle" x="775.6" y="-474.8" font-family="Times,serif" font-size="14.00">raw_fastq_ch</text>
</g>
<!-- p14 -->
<g id="node17" class="node">
<title>p14</title>
<ellipse fill="black" stroke="black" cx="828.6" cy="-348" rx="1.8" ry="1.8"/>
</g>
<!-- p12&#45;&gt;p14 -->
<g id="edge12" class="edge">
<title>p12&#45;&gt;p14</title>
<path fill="none" stroke="black" d="M841.36,-416.8C838.18,-399.92 833.43,-374.66 830.71,-360.22"/>
<polygon fill="black" stroke="black" points="834.09,-359.26 828.8,-350.08 827.21,-360.56 834.09,-359.26"/>
</g>
<!-- p32 -->
<g id="node18" class="node">
<title>p32</title>
<ellipse fill="none" stroke="black" cx="827.6" cy="-308.5" rx="3.5" ry="3.5"/>
<text text-anchor="middle" x="800.6" y="-315.8" font-family="Times,serif" font-size="14.00">collect</text>
</g>
<!-- p12&#45;&gt;p32 -->
<g id="edge13" class="edge">
<title>p12&#45;&gt;p32</title>
<path fill="none" stroke="black" d="M846.44,-416.95C848.11,-395.95 849.06,-359.43 839.6,-330 838.51,-326.61 836.79,-323.18 835,-320.12"/>
<polygon fill="black" stroke="black" points="837.85,-318.09 829.36,-311.74 832.04,-321.99 837.85,-318.09"/>
</g>
<!-- p13 -->
<g id="node19" class="node">
<title>p13</title>
<ellipse fill="black" stroke="black" cx="805.6" cy="-348" rx="1.8" ry="1.8"/>
</g>
<!-- p12&#45;&gt;p13 -->
<g id="edge14" class="edge">
<title>p12&#45;&gt;p13</title>
<path fill="none" stroke="black" d="M836.89,-417.21C828.95,-399.9 816.84,-373.49 810.25,-359.14"/>
<polygon fill="black" stroke="black" points="813.3,-357.4 805.95,-349.77 806.94,-360.31 813.3,-357.4"/>
</g>
<!-- p2 -->
<g id="node4" class="node">
<title>p2</title>
<ellipse fill="black" stroke="black" cx="744.6" cy="-233.4" rx="3.6" ry="3.6"/>
<text text-anchor="middle" x="676" y="-240.8" font-family="Times,serif" font-size="14.00">Channel.fromPath</text>
</g>
<!-- p38 -->
<g id="node5" class="node">
<title>p38</title>
<ellipse fill="none" stroke="black" cx="743.6" cy="-175.3" rx="3.5" ry="3.5"/>
<text text-anchor="middle" x="716.6" y="-182.6" font-family="Times,serif" font-size="14.00">collect</text>
</g>
<!-- p2&#45;&gt;p38 -->
<g id="edge3" class="edge">
<title>p2&#45;&gt;p38</title>
<path fill="none" stroke="black" d="M744.55,-229.69C744.42,-222.46 744.06,-202.33 743.83,-188.96"/>
<polygon fill="black" stroke="black" points="747.32,-188.79 743.65,-178.85 740.32,-188.91 747.32,-188.79"/>
<text text-anchor="middle" x="795.6" y="-200.6" font-family="Times,serif" font-size="14.00">multiqc_config</text>
</g>
<!-- p39 -->
<g id="node41" class="node">
<title>p39</title>
<ellipse fill="none" stroke="black" cx="743.6" cy="-131.2" rx="3.5" ry="3.5"/>
<text text-anchor="middle" x="711.1" y="-116.5" font-family="Times,serif" font-size="14.00">ifEmpty</text>
</g>
<!-- p38&#45;&gt;p39 -->
<g id="edge40" class="edge">
<title>p38&#45;&gt;p39</title>
<path fill="none" stroke="black" d="M743.6,-171.54C743.6,-166.25 743.6,-154.38 743.6,-145.05"/>
<polygon fill="black" stroke="black" points="747.1,-145.03 743.6,-135.03 740.1,-145.03 747.1,-145.03"/>
</g>
<!-- p3 -->
<g id="node6" class="node">
<title>p3</title>
<ellipse fill="black" stroke="black" cx="554.6" cy="-507.6" rx="3.6" ry="3.6"/>
<text text-anchor="middle" x="486" y="-515" font-family="Times,serif" font-size="14.00">Channel.fromPath</text>
</g>
<!-- p4 -->
<g id="node7" class="node">
<title>p4</title>
<ellipse fill="none" stroke="black" cx="559.6" cy="-435" rx="3.5" ry="3.5"/>
<text text-anchor="middle" x="532.6" y="-442.3" font-family="Times,serif" font-size="14.00">collect</text>
</g>
<!-- p3&#45;&gt;p4 -->
<g id="edge4" class="edge">
<title>p3&#45;&gt;p4</title>
<path fill="none" stroke="black" d="M554.79,-503.92C555.42,-495.01 557.48,-465.98 558.69,-448.89"/>
<polygon fill="black" stroke="black" points="562.19,-448.91 559.41,-438.68 555.21,-448.41 562.19,-448.91"/>
</g>
<!-- p20 -->
<g id="node8" class="node">
<title>p20</title>
<ellipse fill="none" stroke="black" cx="498.6" cy="-348" rx="70.69" ry="18"/>
<text text-anchor="middle" x="498.6" y="-344.3" font-family="Times,serif" font-size="14.00">STAR_ALIGN</text>
</g>
<!-- p4&#45;&gt;p20 -->
<g id="edge5" class="edge">
<title>p4&#45;&gt;p20</title>
<path fill="none" stroke="black" d="M561.58,-431.94C568.18,-424.82 588.47,-400.7 577.6,-384 572.55,-376.24 565.35,-370.19 557.33,-365.48"/>
<polygon fill="black" stroke="black" points="558.85,-362.33 548.36,-360.86 555.65,-368.55 558.85,-362.33"/>
<text text-anchor="middle" x="603.6" y="-387.8" font-family="Times,serif" font-size="14.00">gtf_ch</text>
</g>
<!-- p31 -->
<g id="node25" class="node">
<title>p31</title>
<ellipse fill="black" stroke="black" cx="548.6" cy="-283.5" rx="1.8" ry="1.8"/>
</g>
<!-- p20&#45;&gt;p31 -->
<g id="edge22" class="edge">
<title>p20&#45;&gt;p31</title>
<path fill="none" stroke="black" d="M513.53,-330.14C518.43,-324.46 523.84,-318.03 528.6,-312 533.29,-306.06 538.3,-299.17 542.14,-293.77"/>
<polygon fill="black" stroke="black" points="545.01,-295.77 547.87,-285.57 539.27,-291.76 545.01,-295.77"/>
</g>
<!-- p33 -->
<g id="node26" class="node">
<title>p33</title>
<ellipse fill="none" stroke="black" cx="650.6" cy="-283.5" rx="3.5" ry="3.5"/>
<text text-anchor="middle" x="623.6" y="-290.8" font-family="Times,serif" font-size="14.00">collect</text>
</g>
<!-- p20&#45;&gt;p33 -->
<g id="edge23" class="edge">
<title>p20&#45;&gt;p33</title>
<path fill="none" stroke="black" d="M543.62,-333.97C562.19,-328.05 583.75,-320.47 602.6,-312 615.7,-306.11 629.87,-297.72 639.39,-291.76"/>
<polygon fill="black" stroke="black" points="641.57,-294.52 648.09,-286.17 637.79,-288.63 641.57,-294.52"/>
</g>
<!-- p30 -->
<g id="node27" class="node">
<title>p30</title>
<ellipse fill="black" stroke="black" cx="573.6" cy="-283.5" rx="1.8" ry="1.8"/>
</g>
<!-- p20&#45;&gt;p30 -->
<g id="edge24" class="edge">
<title>p20&#45;&gt;p30</title>
<path fill="none" stroke="black" d="M521.56,-330.87C529.37,-325.13 538.03,-318.49 545.6,-312 552.84,-305.79 560.54,-298.15 566.03,-292.5"/>
<polygon fill="black" stroke="black" points="568.59,-294.88 572.94,-285.22 563.52,-290.06 568.59,-294.88"/>
</g>
<!-- p29 -->
<g id="node28" class="node">
<title>p29</title>
<ellipse fill="black" stroke="black" cx="598.6" cy="-283.5" rx="1.8" ry="1.8"/>
</g>
<!-- p20&#45;&gt;p29 -->
<g id="edge25" class="edge">
<title>p20&#45;&gt;p29</title>
<path fill="none" stroke="black" d="M529.65,-331.67C540.62,-325.9 552.88,-319.02 563.6,-312 573.1,-305.78 583.23,-297.63 590.14,-291.83"/>
<polygon fill="black" stroke="black" points="592.49,-294.42 597.77,-285.24 587.92,-289.12 592.49,-294.42"/>
</g>
<!-- p28 -->
<g id="node29" class="node">
<title>p28</title>
<ellipse fill="black" stroke="black" cx="623.6" cy="-283.5" rx="1.8" ry="1.8"/>
</g>
<!-- p20&#45;&gt;p28 -->
<g id="edge26" class="edge">
<title>p20&#45;&gt;p28</title>
<path fill="none" stroke="black" d="M536.96,-332.86C551.55,-327.01 568.12,-319.77 582.6,-312 594.1,-305.83 606.42,-297.27 614.52,-291.35"/>
<polygon fill="black" stroke="black" points="616.74,-294.06 622.63,-285.26 612.53,-288.46 616.74,-294.06"/>
</g>
<!-- p27 -->
<g id="node30" class="node">
<title>p27</title>
<ellipse fill="black" stroke="black" cx="373.6" cy="-283.5" rx="1.8" ry="1.8"/>
</g>
<!-- p20&#45;&gt;p27 -->
<g id="edge27" class="edge">
<title>p20&#45;&gt;p27</title>
<path fill="none" stroke="black" d="M468.02,-331.71C440.57,-317.98 401.89,-298.64 383.74,-289.57"/>
<polygon fill="black" stroke="black" points="385.12,-286.35 374.61,-285.01 381.99,-292.61 385.12,-286.35"/>
</g>
<!-- p26 -->
<g id="node31" class="node">
<title>p26</title>
<ellipse fill="black" stroke="black" cx="398.6" cy="-283.5" rx="1.8" ry="1.8"/>
</g>
<!-- p20&#45;&gt;p26 -->
<g id="edge28" class="edge">
<title>p20&#45;&gt;p26</title>
<path fill="none" stroke="black" d="M473.11,-331.07C452.13,-317.96 423.51,-300.07 408.58,-290.74"/>
<polygon fill="black" stroke="black" points="410.07,-287.54 399.73,-285.21 406.36,-293.48 410.07,-287.54"/>
</g>
<!-- p25 -->
<g id="node32" class="node">
<title>p25</title>
<ellipse fill="black" stroke="black" cx="423.6" cy="-283.5" rx="1.8" ry="1.8"/>
</g>
<!-- p20&#45;&gt;p25 -->
<g id="edge29" class="edge">
<title>p20&#45;&gt;p25</title>
<path fill="none" stroke="black" d="M478.89,-330.58C463.79,-317.99 443.67,-301.23 432.34,-291.78"/>
<polygon fill="black" stroke="black" points="434.36,-288.91 424.44,-285.2 429.88,-294.29 434.36,-288.91"/>
</g>
<!-- p24 -->
<g id="node33" class="node">
<title>p24</title>
<ellipse fill="black" stroke="black" cx="448.6" cy="-283.5" rx="1.8" ry="1.8"/>
</g>
<!-- p20&#45;&gt;p24 -->
<g id="edge30" class="edge">
<title>p20&#45;&gt;p24</title>
<path fill="none" stroke="black" d="M485.2,-330.25C475.79,-318.48 463.55,-303.19 455.88,-293.6"/>
<polygon fill="black" stroke="black" points="458.55,-291.33 449.57,-285.71 453.08,-295.7 458.55,-291.33"/>
</g>
<!-- p23 -->
<g id="node34" class="node">
<title>p23</title>
<ellipse fill="black" stroke="black" cx="473.6" cy="-283.5" rx="1.8" ry="1.8"/>
</g>
<!-- p20&#45;&gt;p23 -->
<g id="edge31" class="edge">
<title>p20&#45;&gt;p23</title>
<path fill="none" stroke="black" d="M491.77,-329.92C487.32,-318.79 481.65,-304.61 477.83,-295.08"/>
<polygon fill="black" stroke="black" points="481.04,-293.68 474.08,-285.69 474.54,-296.28 481.04,-293.68"/>
</g>
<!-- p22 -->
<g id="node35" class="node">
<title>p22</title>
<ellipse fill="black" stroke="black" cx="498.6" cy="-283.5" rx="1.8" ry="1.8"/>
</g>
<!-- p20&#45;&gt;p22 -->
<g id="edge32" class="edge">
<title>p20&#45;&gt;p22</title>
<path fill="none" stroke="black" d="M498.6,-329.92C498.6,-319.04 498.6,-305.26 498.6,-295.74"/>
<polygon fill="black" stroke="black" points="502.1,-295.69 498.6,-285.69 495.1,-295.69 502.1,-295.69"/>
</g>
<!-- p21 -->
<g id="node36" class="node">
<title>p21</title>
<ellipse fill="black" stroke="black" cx="523.6" cy="-283.5" rx="1.8" ry="1.8"/>
</g>
<!-- p20&#45;&gt;p21 -->
<g id="edge33" class="edge">
<title>p20&#45;&gt;p21</title>
<path fill="none" stroke="black" d="M505.43,-329.92C509.88,-318.79 515.55,-304.61 519.37,-295.08"/>
<polygon fill="black" stroke="black" points="522.66,-296.28 523.12,-285.69 516.16,-293.68 522.66,-296.28"/>
</g>
<!-- p5 -->
<g id="node9" class="node">
<title>p5</title>
<ellipse fill="black" stroke="black" cx="965.6" cy="-551.8" rx="3.6" ry="3.6"/>
<text text-anchor="middle" x="897" y="-559.2" font-family="Times,serif" font-size="14.00">Channel.fromPath</text>
</g>
<!-- p6 -->
<g id="node10" class="node">
<title>p6</title>
<ellipse fill="none" stroke="black" cx="965.6" cy="-507.6" rx="3.5" ry="3.5"/>
<text text-anchor="middle" x="938.6" y="-514.9" font-family="Times,serif" font-size="14.00">collect</text>
</g>
<!-- p5&#45;&gt;p6 -->
<g id="edge6" class="edge">
<title>p5&#45;&gt;p6</title>
<path fill="none" stroke="black" d="M965.6,-548.03C965.6,-542.73 965.6,-530.83 965.6,-521.48"/>
<polygon fill="black" stroke="black" points="969.1,-521.43 965.6,-511.43 962.1,-521.43 969.1,-521.43"/>
</g>
<!-- p7 -->
<g id="node11" class="node">
<title>p7</title>
<ellipse fill="black" stroke="black" cx="965.6" cy="-435" rx="1.8" ry="1.8"/>
</g>
<!-- p6&#45;&gt;p7 -->
<g id="edge7" class="edge">
<title>p6&#45;&gt;p7</title>
<path fill="none" stroke="black" d="M965.6,-503.92C965.6,-494.68 965.6,-463.8 965.6,-447.05"/>
<polygon fill="black" stroke="black" points="969.1,-446.96 965.6,-436.96 962.1,-446.96 969.1,-446.96"/>
<text text-anchor="middle" x="995.1" y="-474.8" font-family="Times,serif" font-size="14.00">fasta_ch</text>
</g>
<!-- p8 -->
<g id="node12" class="node">
<title>p8</title>
<ellipse fill="black" stroke="black" cx="133.6" cy="-507.6" rx="3.6" ry="3.6"/>
<text text-anchor="middle" x="65" y="-515" font-family="Times,serif" font-size="14.00">Channel.fromPath</text>
</g>
<!-- p9 -->
<g id="node13" class="node">
<title>p9</title>
<ellipse fill="none" stroke="black" cx="133.6" cy="-435" rx="3.5" ry="3.5"/>
<text text-anchor="middle" x="106.6" y="-442.3" font-family="Times,serif" font-size="14.00">collect</text>
</g>
<!-- p8&#45;&gt;p9 -->
<g id="edge8" class="edge">
<title>p8&#45;&gt;p9</title>
<path fill="none" stroke="black" d="M133.6,-503.92C133.6,-495.01 133.6,-465.98 133.6,-448.89"/>
<polygon fill="black" stroke="black" points="137.1,-448.68 133.6,-438.68 130.1,-448.68 137.1,-448.68"/>
</g>
<!-- p9&#45;&gt;p20 -->
<g id="edge9" class="edge">
<title>p9&#45;&gt;p20</title>
<path fill="none" stroke="black" d="M134.45,-431.57C137.52,-423.23 148.89,-395.63 168.6,-384 209.43,-359.92 334.13,-352.33 418,-349.99"/>
<polygon fill="black" stroke="black" points="418.11,-353.49 428.02,-349.73 417.93,-346.49 418.11,-353.49"/>
<text text-anchor="middle" x="200.1" y="-387.8" font-family="Times,serif" font-size="14.00">index_ch</text>
</g>
<!-- p10 -->
<g id="node14" class="node">
<title>p10</title>
<ellipse fill="black" stroke="black" cx="587.6" cy="-551.8" rx="3.6" ry="3.6"/>
<text text-anchor="middle" x="519" y="-559.2" font-family="Times,serif" font-size="14.00">Channel.fromPath</text>
</g>
<!-- p11 -->
<g id="node15" class="node">
<title>p11</title>
<ellipse fill="none" stroke="black" cx="587.6" cy="-507.6" rx="3.5" ry="3.5"/>
<text text-anchor="middle" x="560.6" y="-492.9" font-family="Times,serif" font-size="14.00">collect</text>
</g>
<!-- p10&#45;&gt;p11 -->
<g id="edge10" class="edge">
<title>p10&#45;&gt;p11</title>
<path fill="none" stroke="black" d="M587.6,-548.03C587.6,-542.73 587.6,-530.83 587.6,-521.48"/>
<polygon fill="black" stroke="black" points="591.1,-521.43 587.6,-511.43 584.1,-521.43 591.1,-521.43"/>
</g>
<!-- p11&#45;&gt;p15 -->
<g id="edge11" class="edge">
<title>p11&#45;&gt;p15</title>
<path fill="none" stroke="black" d="M586.8,-504.06C584.98,-497.77 581.24,-481.24 588.6,-471 594.45,-462.86 602.4,-456.61 611.23,-451.82"/>
<polygon fill="black" stroke="black" points="612.79,-454.95 620.31,-447.49 609.77,-448.63 612.79,-454.95"/>
<text text-anchor="middle" x="649.1" y="-474.8" font-family="Times,serif" font-size="14.00">contaminants_ch</text>
</g>
<!-- p15&#45;&gt;p20 -->
<g id="edge16" class="edge">
<title>p15&#45;&gt;p20</title>
<path fill="none" stroke="black" d="M669.16,-416.87C659.1,-405.98 644.82,-392.39 629.6,-384 610.38,-373.4 587.79,-365.88 566.82,-360.6"/>
<polygon fill="black" stroke="black" points="567.54,-357.17 557,-358.26 565.92,-363.98 567.54,-357.17"/>
</g>
<!-- p35 -->
<g id="node20" class="node">
<title>p35</title>
<ellipse fill="none" stroke="black" cx="683.6" cy="-258.5" rx="3.5" ry="3.5"/>
<text text-anchor="middle" x="656.6" y="-265.8" font-family="Times,serif" font-size="14.00">collect</text>
</g>
<!-- p15&#45;&gt;p35 -->
<g id="edge17" class="edge">
<title>p15&#45;&gt;p35</title>
<path fill="none" stroke="black" d="M683.6,-416.95C683.6,-382.13 683.6,-303.53 683.6,-272.47"/>
<polygon fill="black" stroke="black" points="687.1,-272.34 683.6,-262.34 680.1,-272.34 687.1,-272.34"/>
</g>
<!-- p16 -->
<g id="node21" class="node">
<title>p16</title>
<ellipse fill="black" stroke="black" cx="713.6" cy="-348" rx="1.8" ry="1.8"/>
</g>
<!-- p15&#45;&gt;p16 -->
<g id="edge18" class="edge">
<title>p15&#45;&gt;p16</title>
<path fill="none" stroke="black" d="M690.68,-417C692.97,-411.31 695.47,-404.91 697.6,-399 702.4,-385.64 707.28,-370.03 710.37,-359.85"/>
<polygon fill="black" stroke="black" points="713.73,-360.83 713.24,-350.25 707.02,-358.83 713.73,-360.83"/>
</g>
<!-- p34 -->
<g id="node37" class="node">
<title>p34</title>
<ellipse fill="none" stroke="black" cx="715.6" cy="-233.4" rx="3.5" ry="3.5"/>
<text text-anchor="middle" x="698.6" y="-218.7" font-family="Times,serif" font-size="14.00">mix</text>
</g>
<!-- p32&#45;&gt;p34 -->
<g id="edge34" class="edge">
<title>p32&#45;&gt;p34</title>
<path fill="none" stroke="black" d="M824.83,-305.69C811.33,-296.88 752.06,-258.2 726.93,-241.79"/>
<polygon fill="black" stroke="black" points="728.56,-238.68 718.27,-236.14 724.73,-244.54 728.56,-238.68"/>
</g>
<!-- p36 -->
<g id="node38" class="node">
<title>p36</title>
<ellipse fill="none" stroke="black" cx="711.6" cy="-175.3" rx="3.5" ry="3.5"/>
<text text-anchor="middle" x="694.6" y="-160.6" font-family="Times,serif" font-size="14.00">mix</text>
</g>
<!-- p35&#45;&gt;p36 -->
<g id="edge37" class="edge">
<title>p35&#45;&gt;p36</title>
<path fill="none" stroke="black" d="M684.53,-254.8C688.07,-244.55 700.79,-207.65 707.46,-188.32"/>
<polygon fill="black" stroke="black" points="710.8,-189.36 710.75,-178.77 704.18,-187.08 710.8,-189.36"/>
</g>
<!-- p17 -->
<g id="node22" class="node">
<title>p17</title>
<ellipse fill="black" stroke="black" cx="219.6" cy="-435" rx="3.6" ry="3.6"/>
</g>
<!-- p17&#45;&gt;p20 -->
<g id="edge19" class="edge">
<title>p17&#45;&gt;p20</title>
<path fill="none" stroke="black" d="M220.31,-431.13C222.64,-422.37 230.95,-395.87 248.6,-384 275.81,-365.69 356.66,-356.83 419.12,-352.62"/>
<polygon fill="black" stroke="black" points="419.62,-356.1 429.37,-351.96 419.17,-349.11 419.62,-356.1"/>
<text text-anchor="middle" x="318.1" y="-387.8" font-family="Times,serif" font-size="14.00">star_ignore_sjdbgtf</text>
</g>
<!-- p18 -->
<g id="node23" class="node">
<title>p18</title>
<ellipse fill="black" stroke="black" cx="381.6" cy="-435" rx="3.6" ry="3.6"/>
</g>
<!-- p18&#45;&gt;p20 -->
<g id="edge20" class="edge">
<title>p18&#45;&gt;p20</title>
<path fill="none" stroke="black" d="M381.84,-431.3C382.74,-423.03 386.54,-397.78 400.6,-384 410.01,-374.78 422.01,-367.97 434.36,-362.95"/>
<polygon fill="black" stroke="black" points="435.67,-366.2 443.83,-359.45 433.24,-359.63 435.67,-366.2"/>
<text text-anchor="middle" x="447.6" y="-387.8" font-family="Times,serif" font-size="14.00">seq_platform</text>
</g>
<!-- p19 -->
<g id="node24" class="node">
<title>p19</title>
<ellipse fill="black" stroke="black" cx="498.6" cy="-435" rx="3.6" ry="3.6"/>
</g>
<!-- p19&#45;&gt;p20 -->
<g id="edge21" class="edge">
<title>p19&#45;&gt;p20</title>
<path fill="none" stroke="black" d="M498.6,-431.17C498.6,-422.68 498.6,-396.75 498.6,-376.27"/>
<polygon fill="black" stroke="black" points="502.1,-376.17 498.6,-366.17 495.1,-376.17 502.1,-376.17"/>
<text text-anchor="middle" x="537.6" y="-387.8" font-family="Times,serif" font-size="14.00">seq_center</text>
</g>
<!-- p33&#45;&gt;p34 -->
<g id="edge35" class="edge">
<title>p33&#45;&gt;p34</title>
<path fill="none" stroke="black" d="M651.83,-280.21C654.69,-275.08 662.24,-262.54 671.6,-255 681.02,-247.41 693.7,-241.86 703.02,-238.44"/>
<polygon fill="black" stroke="black" points="704.17,-241.75 712.55,-235.27 701.96,-235.11 704.17,-241.75"/>
</g>
<!-- p34&#45;&gt;p36 -->
<g id="edge36" class="edge">
<title>p34&#45;&gt;p36</title>
<path fill="none" stroke="black" d="M715.41,-229.69C714.89,-222.46 713.46,-202.33 712.5,-188.96"/>
<polygon fill="black" stroke="black" points="715.98,-188.58 711.78,-178.85 709,-189.07 715.98,-188.58"/>
</g>
<!-- p37 -->
<g id="node39" class="node">
<title>p37</title>
<ellipse fill="none" stroke="black" cx="717.6" cy="-131.2" rx="3.5" ry="3.5"/>
<text text-anchor="middle" x="690.6" y="-138.5" font-family="Times,serif" font-size="14.00">collect</text>
</g>
<!-- p36&#45;&gt;p37 -->
<g id="edge38" class="edge">
<title>p36&#45;&gt;p37</title>
<path fill="none" stroke="black" d="M711.99,-171.54C712.75,-166.25 714.44,-154.38 715.77,-145.05"/>
<polygon fill="black" stroke="black" points="719.25,-145.42 717.2,-135.03 712.32,-144.43 719.25,-145.42"/>
</g>
<!-- p42 -->
<g id="node40" class="node">
<title>p42</title>
<ellipse fill="none" stroke="black" cx="759.6" cy="-58.6" rx="56.59" ry="18"/>
<text text-anchor="middle" x="759.6" y="-54.9" font-family="Times,serif" font-size="14.00">MULTIQC</text>
</g>
<!-- p37&#45;&gt;p42 -->
<g id="edge39" class="edge">
<title>p37&#45;&gt;p42</title>
<path fill="none" stroke="black" d="M719,-127.85C722.96,-121.19 734.62,-101.59 744.44,-85.09"/>
<polygon fill="black" stroke="black" points="747.53,-86.73 749.64,-76.35 741.52,-83.15 747.53,-86.73"/>
</g>
<!-- p46 -->
<g id="node44" class="node">
<title>p46</title>
<ellipse fill="black" stroke="black" cx="722.6" cy="-1.8" rx="1.8" ry="1.8"/>
</g>
<!-- p42&#45;&gt;p46 -->
<g id="edge44" class="edge">
<title>p42&#45;&gt;p46</title>
<path fill="none" stroke="black" d="M748.3,-40.86C741.98,-31.5 734.32,-20.16 729.02,-12.31"/>
<polygon fill="black" stroke="black" points="731.75,-10.1 723.26,-3.77 725.95,-14.02 731.75,-10.1"/>
</g>
<!-- p45 -->
<g id="node45" class="node">
<title>p45</title>
<ellipse fill="black" stroke="black" cx="747.6" cy="-1.8" rx="1.8" ry="1.8"/>
</g>
<!-- p42&#45;&gt;p45 -->
<g id="edge45" class="edge">
<title>p42&#45;&gt;p45</title>
<path fill="none" stroke="black" d="M755.87,-40.56C753.94,-31.76 751.65,-21.3 749.97,-13.61"/>
<polygon fill="black" stroke="black" points="753.37,-12.78 747.81,-3.76 746.53,-14.28 753.37,-12.78"/>
</g>
<!-- p44 -->
<g id="node46" class="node">
<title>p44</title>
<ellipse fill="black" stroke="black" cx="772.6" cy="-1.8" rx="1.8" ry="1.8"/>
</g>
<!-- p42&#45;&gt;p44 -->
<g id="edge46" class="edge">
<title>p42&#45;&gt;p44</title>
<path fill="none" stroke="black" d="M763.64,-40.56C765.73,-31.76 768.21,-21.3 770.03,-13.61"/>
<polygon fill="black" stroke="black" points="773.47,-14.3 772.37,-3.76 766.66,-12.68 773.47,-14.3"/>
</g>
<!-- p43 -->
<g id="node47" class="node">
<title>p43</title>
<ellipse fill="black" stroke="black" cx="797.6" cy="-1.8" rx="1.8" ry="1.8"/>
</g>
<!-- p42&#45;&gt;p43 -->
<g id="edge47" class="edge">
<title>p42&#45;&gt;p43</title>
<path fill="none" stroke="black" d="M771.21,-40.86C777.78,-31.39 785.74,-19.9 791.19,-12.04"/>
<polygon fill="black" stroke="black" points="794.1,-13.99 796.92,-3.77 788.35,-10 794.1,-13.99"/>
</g>
<!-- p39&#45;&gt;p42 -->
<g id="edge41" class="edge">
<title>p39&#45;&gt;p42</title>
<path fill="none" stroke="black" d="M744.21,-127.52C745.73,-120.78 749.87,-102.55 753.46,-86.68"/>
<polygon fill="black" stroke="black" points="756.92,-87.25 755.72,-76.73 750.09,-85.71 756.92,-87.25"/>
</g>
<!-- p40 -->
<g id="node42" class="node">
<title>p40</title>
<ellipse fill="black" stroke="black" cx="776.6" cy="-131.2" rx="3.6" ry="3.6"/>
</g>
<!-- p40&#45;&gt;p42 -->
<g id="edge42" class="edge">
<title>p40&#45;&gt;p42</title>
<path fill="none" stroke="black" d="M775.95,-127.52C774.33,-120.78 769.94,-102.55 766.12,-86.68"/>
<polygon fill="black" stroke="black" points="769.47,-85.63 763.72,-76.73 762.66,-87.27 769.47,-85.63"/>
<text text-anchor="middle" x="844.6" y="-98.4" font-family="Times,serif" font-size="14.00">extra_multiqc_config</text>
</g>
<!-- p41 -->
<g id="node43" class="node">
<title>p41</title>
<ellipse fill="black" stroke="black" cx="947.6" cy="-131.2" rx="3.6" ry="3.6"/>
</g>
<!-- p41&#45;&gt;p42 -->
<g id="edge43" class="edge">
<title>p41&#45;&gt;p42</title>
<path fill="none" stroke="black" d="M946.51,-127.44C943.69,-120.66 935.44,-103.11 922.6,-94.6 894.08,-75.71 857.14,-66.8 825.64,-62.68"/>
<polygon fill="black" stroke="black" points="825.97,-59.2 815.63,-61.51 825.15,-66.15 825.97,-59.2"/>
<text text-anchor="middle" x="981.1" y="-98.4" font-family="Times,serif" font-size="14.00">multiqc_logo</text>
</g>
</g>
</svg>
