<?xml version="1.0" encoding="UTF-8" standalone="no"?>
<!DOCTYPE svg PUBLIC "-//W3C//DTD SVG 1.1//EN"
 "http://www.w3.org/Graphics/SVG/1.1/DTD/svg11.dtd">
<!-- Generated by graphviz version 2.43.0 (0)
 -->
<!-- Title: pipeline_dag Pages: 1 -->
<svg width="1412pt" height="665pt"
 viewBox="0.00 0.00 1411.60 665.40" xmlns="http://www.w3.org/2000/svg" xmlns:xlink="http://www.w3.org/1999/xlink">
<g id="graph0" class="graph" transform="scale(1 1) rotate(0) translate(4 661.4)">
<title>pipeline_dag</title>
<polygon fill="white" stroke="transparent" points="-4,4 -4,-661.4 1407.6,-661.4 1407.6,4 -4,4"/>
<!-- p0 -->
<g id="node1" class="node">
<title>p0</title>
<ellipse fill="black" stroke="black" cx="1024.6" cy="-638.8" rx="3.6" ry="3.6"/>
<text text-anchor="middle" x="941" y="-646.2" font-family="Times,serif" font-size="14.00">Channel.fromFilePairs</text>
</g>
<!-- p1 -->
<g id="node2" class="node">
<title>p1</title>
<ellipse fill="none" stroke="black" cx="1024.6" cy="-594.6" rx="3.5" ry="3.5"/>
<text text-anchor="middle" x="1005.6" y="-601.9" font-family="Times,serif" font-size="14.00">map</text>
</g>
<!-- p0&#45;&gt;p1 -->
<g id="edge1" class="edge">
<title>p0&#45;&gt;p1</title>
<path fill="none" stroke="black" d="M1024.6,-635.03C1024.6,-629.73 1024.6,-617.83 1024.6,-608.48"/>
<polygon fill="black" stroke="black" points="1028.1,-608.43 1024.6,-598.43 1021.1,-608.43 1028.1,-608.43"/>
</g>
<!-- p14 -->
<g id="node3" class="node">
<title>p14</title>
<ellipse fill="none" stroke="black" cx="966.6" cy="-522" rx="48.99" ry="18"/>
<text text-anchor="middle" x="966.6" y="-518.3" font-family="Times,serif" font-size="14.00">FASTQC</text>
</g>
<!-- p1&#45;&gt;p14 -->
<g id="edge2" class="edge">
<title>p1&#45;&gt;p14</title>
<path fill="none" stroke="black" d="M1020.99,-593.58C1010.58,-593.32 980.47,-590.96 967.6,-573 962.96,-566.52 961.51,-558.26 961.57,-550.33"/>
<polygon fill="black" stroke="black" points="965.07,-550.52 962.38,-540.27 958.09,-549.96 965.07,-550.52"/>
<text text-anchor="middle" x="1014.6" y="-561.8" font-family="Times,serif" font-size="14.00">raw_fastq_ch</text>
</g>
<!-- p17 -->
<g id="node19" class="node">
<title>p17</title>
<ellipse fill="none" stroke="black" cx="1119.6" cy="-522" rx="86.38" ry="18"/>
<text text-anchor="middle" x="1119.6" y="-518.3" font-family="Times,serif" font-size="14.00">BBMAP_BBDUK</text>
</g>
<!-- p1&#45;&gt;p17 -->
<g id="edge17" class="edge">
<title>p1&#45;&gt;p17</title>
<path fill="none" stroke="black" d="M1027.41,-592.28C1033.74,-589.26 1049.55,-581.42 1061.6,-573 1068.13,-568.44 1081.24,-557.2 1093.35,-546.54"/>
<polygon fill="black" stroke="black" points="1095.92,-548.93 1101.08,-539.68 1091.28,-543.7 1095.92,-548.93"/>
<text text-anchor="middle" x="1125.6" y="-561.8" font-family="Times,serif" font-size="14.00">raw_fastq_ch</text>
</g>
<!-- p16 -->
<g id="node20" class="node">
<title>p16</title>
<ellipse fill="black" stroke="black" cx="966.6" cy="-435" rx="1.8" ry="1.8"/>
</g>
<!-- p14&#45;&gt;p16 -->
<g id="edge14" class="edge">
<title>p14&#45;&gt;p16</title>
<path fill="none" stroke="black" d="M966.6,-503.8C966.6,-486.92 966.6,-461.66 966.6,-447.22"/>
<polygon fill="black" stroke="black" points="970.1,-447.08 966.6,-437.08 963.1,-447.08 970.1,-447.08"/>
</g>
<!-- p42 -->
<g id="node21" class="node">
<title>p42</title>
<ellipse fill="none" stroke="black" cx="1023.6" cy="-391.5" rx="3.5" ry="3.5"/>
<text text-anchor="middle" x="996.6" y="-398.8" font-family="Times,serif" font-size="14.00">collect</text>
</g>
<!-- p14&#45;&gt;p42 -->
<g id="edge15" class="edge">
<title>p14&#45;&gt;p42</title>
<path fill="none" stroke="black" d="M974.05,-504.2C985.77,-477.78 1008.21,-427.19 1018.37,-404.28"/>
<polygon fill="black" stroke="black" points="1021.59,-405.66 1022.45,-395.1 1015.19,-402.83 1021.59,-405.66"/>
</g>
<!-- p15 -->
<g id="node22" class="node">
<title>p15</title>
<ellipse fill="black" stroke="black" cx="1026.6" cy="-435" rx="1.8" ry="1.8"/>
</g>
<!-- p14&#45;&gt;p15 -->
<g id="edge16" class="edge">
<title>p14&#45;&gt;p15</title>
<path fill="none" stroke="black" d="M990.44,-506.11C997.76,-500.56 1005.28,-493.71 1010.6,-486 1018.76,-474.19 1022.93,-457.98 1024.94,-447.26"/>
<polygon fill="black" stroke="black" points="1028.4,-447.78 1026.46,-437.36 1021.48,-446.72 1028.4,-447.78"/>
</g>
<!-- p2 -->
<g id="node4" class="node">
<title>p2</title>
<ellipse fill="black" stroke="black" cx="967.6" cy="-233.4" rx="3.6" ry="3.6"/>
<text text-anchor="middle" x="899" y="-240.8" font-family="Times,serif" font-size="14.00">Channel.fromPath</text>
</g>
<!-- p50 -->
<g id="node5" class="node">
<title>p50</title>
<ellipse fill="none" stroke="black" cx="966.6" cy="-175.3" rx="3.5" ry="3.5"/>
<text text-anchor="middle" x="939.6" y="-182.6" font-family="Times,serif" font-size="14.00">collect</text>
</g>
<!-- p2&#45;&gt;p50 -->
<g id="edge3" class="edge">
<title>p2&#45;&gt;p50</title>
<path fill="none" stroke="black" d="M967.55,-229.69C967.42,-222.46 967.06,-202.33 966.83,-188.96"/>
<polygon fill="black" stroke="black" points="970.32,-188.79 966.65,-178.85 963.32,-188.91 970.32,-188.79"/>
<text text-anchor="middle" x="1019.6" y="-200.6" font-family="Times,serif" font-size="14.00">multiqc_config</text>
</g>
<!-- p51 -->
<g id="node53" class="node">
<title>p51</title>
<ellipse fill="none" stroke="black" cx="966.6" cy="-131.2" rx="3.5" ry="3.5"/>
<text text-anchor="middle" x="934.1" y="-116.5" font-family="Times,serif" font-size="14.00">ifEmpty</text>
</g>
<!-- p50&#45;&gt;p51 -->
<g id="edge55" class="edge">
<title>p50&#45;&gt;p51</title>
<path fill="none" stroke="black" d="M966.6,-171.54C966.6,-166.25 966.6,-154.38 966.6,-145.05"/>
<polygon fill="black" stroke="black" points="970.1,-145.03 966.6,-135.03 963.1,-145.03 970.1,-145.03"/>
</g>
<!-- p3 -->
<g id="node6" class="node">
<title>p3</title>
<ellipse fill="black" stroke="black" cx="458.6" cy="-594.6" rx="3.6" ry="3.6"/>
<text text-anchor="middle" x="390" y="-602" font-family="Times,serif" font-size="14.00">Channel.fromPath</text>
</g>
<!-- p4 -->
<g id="node7" class="node">
<title>p4</title>
<ellipse fill="none" stroke="black" cx="458.6" cy="-522" rx="3.5" ry="3.5"/>
<text text-anchor="middle" x="431.6" y="-529.3" font-family="Times,serif" font-size="14.00">collect</text>
</g>
<!-- p3&#45;&gt;p4 -->
<g id="edge4" class="edge">
<title>p3&#45;&gt;p4</title>
<path fill="none" stroke="black" d="M458.6,-590.92C458.6,-582.01 458.6,-552.98 458.6,-535.89"/>
<polygon fill="black" stroke="black" points="462.1,-535.68 458.6,-525.68 455.1,-535.68 462.1,-535.68"/>
</g>
<!-- p22 -->
<g id="node8" class="node">
<title>p22</title>
<ellipse fill="none" stroke="black" cx="786.6" cy="-435" rx="70.69" ry="18"/>
<text text-anchor="middle" x="786.6" y="-431.3" font-family="Times,serif" font-size="14.00">STAR_ALIGN</text>
</g>
<!-- p4&#45;&gt;p22 -->
<g id="edge5" class="edge">
<title>p4&#45;&gt;p22</title>
<path fill="none" stroke="black" d="M461.16,-519.27C472.03,-512.04 515.59,-483.96 555.6,-471 605.2,-454.94 663.22,-446.18 708.71,-441.45"/>
<polygon fill="black" stroke="black" points="709.2,-444.91 718.8,-440.44 708.51,-437.95 709.2,-444.91"/>
<text text-anchor="middle" x="577.6" y="-474.8" font-family="Times,serif" font-size="14.00">gtf_ch</text>
</g>
<!-- p39 -->
<g id="node14" class="node">
<title>p39</title>
<ellipse fill="none" stroke="black" cx="411.6" cy="-348" rx="92.88" ry="18"/>
<text text-anchor="middle" x="411.6" y="-344.3" font-family="Times,serif" font-size="14.00">SALMON_QUANT</text>
</g>
<!-- p4&#45;&gt;p39 -->
<g id="edge41" class="edge">
<title>p4&#45;&gt;p39</title>
<path fill="none" stroke="black" d="M455.96,-519.56C444.94,-513.39 402.48,-487.85 387.6,-453 376.81,-427.73 386.57,-396.84 396.7,-375.32"/>
<polygon fill="black" stroke="black" points="399.95,-376.65 401.3,-366.14 393.69,-373.51 399.95,-376.65"/>
<text text-anchor="middle" x="409.6" y="-431.3" font-family="Times,serif" font-size="14.00">gtf_ch</text>
</g>
<!-- p22&#45;&gt;p39 -->
<g id="edge30" class="edge">
<title>p22&#45;&gt;p39</title>
<path fill="none" stroke="black" d="M742.25,-420.82C705.14,-410.07 650.7,-394.92 602.6,-384 565.95,-375.68 524.99,-367.96 490.43,-361.91"/>
<polygon fill="black" stroke="black" points="490.85,-358.43 480.4,-360.17 489.65,-365.33 490.85,-358.43"/>
</g>
<!-- p36 -->
<g id="node28" class="node">
<title>p36</title>
<ellipse fill="black" stroke="black" cx="774.6" cy="-348" rx="1.8" ry="1.8"/>
</g>
<!-- p22&#45;&gt;p36 -->
<g id="edge24" class="edge">
<title>p22&#45;&gt;p36</title>
<path fill="none" stroke="black" d="M784.17,-416.8C781.79,-399.92 778.22,-374.66 776.18,-360.22"/>
<polygon fill="black" stroke="black" points="779.62,-359.49 774.75,-350.08 772.69,-360.47 779.62,-359.49"/>
</g>
<!-- p43 -->
<g id="node29" class="node">
<title>p43</title>
<ellipse fill="none" stroke="black" cx="850.6" cy="-348" rx="3.5" ry="3.5"/>
<text text-anchor="middle" x="823.6" y="-355.3" font-family="Times,serif" font-size="14.00">collect</text>
</g>
<!-- p22&#45;&gt;p43 -->
<g id="edge25" class="edge">
<title>p22&#45;&gt;p43</title>
<path fill="none" stroke="black" d="M807.86,-417.51C814.06,-412.05 820.52,-405.66 825.6,-399 834.67,-387.11 841.87,-371.43 846.18,-360.82"/>
<polygon fill="black" stroke="black" points="849.45,-362.06 849.74,-351.47 842.91,-359.57 849.45,-362.06"/>
</g>
<!-- p35 -->
<g id="node30" class="node">
<title>p35</title>
<ellipse fill="black" stroke="black" cx="799.6" cy="-348" rx="1.8" ry="1.8"/>
</g>
<!-- p22&#45;&gt;p35 -->
<g id="edge26" class="edge">
<title>p22&#45;&gt;p35</title>
<path fill="none" stroke="black" d="M789.23,-416.8C791.81,-399.92 795.68,-374.66 797.88,-360.22"/>
<polygon fill="black" stroke="black" points="801.38,-360.5 799.43,-350.08 794.46,-359.44 801.38,-360.5"/>
</g>
<!-- p34 -->
<g id="node31" class="node">
<title>p34</title>
<ellipse fill="black" stroke="black" cx="824.6" cy="-348" rx="1.8" ry="1.8"/>
</g>
<!-- p22&#45;&gt;p34 -->
<g id="edge27" class="edge">
<title>p22&#45;&gt;p34</title>
<path fill="none" stroke="black" d="M797.82,-416.95C801.22,-411.37 804.8,-405.04 807.6,-399 813.61,-386.04 818.6,-370.35 821.58,-360.04"/>
<polygon fill="black" stroke="black" points="824.99,-360.85 824.27,-350.28 818.24,-358.99 824.99,-360.85"/>
</g>
<!-- p33 -->
<g id="node32" class="node">
<title>p33</title>
<ellipse fill="black" stroke="black" cx="874.6" cy="-348" rx="1.8" ry="1.8"/>
</g>
<!-- p22&#45;&gt;p33 -->
<g id="edge28" class="edge">
<title>p22&#45;&gt;p33</title>
<path fill="none" stroke="black" d="M818.1,-418.74C827.32,-413.34 836.96,-406.66 844.6,-399 856.26,-387.31 865.24,-370.22 870.22,-359.35"/>
<polygon fill="black" stroke="black" points="873.59,-360.37 874.3,-349.8 867.16,-357.62 873.59,-360.37"/>
</g>
<!-- p32 -->
<g id="node33" class="node">
<title>p32</title>
<ellipse fill="black" stroke="black" cx="899.6" cy="-348" rx="1.8" ry="1.8"/>
</g>
<!-- p22&#45;&gt;p32 -->
<g id="edge29" class="edge">
<title>p22&#45;&gt;p32</title>
<path fill="none" stroke="black" d="M828.26,-420.2C840.76,-414.82 853.96,-407.8 864.6,-399 878.22,-387.74 888.94,-369.94 894.77,-358.89"/>
<polygon fill="black" stroke="black" points="897.96,-360.34 899.23,-349.82 891.68,-357.25 897.96,-360.34"/>
</g>
<!-- p31 -->
<g id="node34" class="node">
<title>p31</title>
<ellipse fill="black" stroke="black" cx="924.6" cy="-348" rx="1.8" ry="1.8"/>
</g>
<!-- p22&#45;&gt;p31 -->
<g id="edge31" class="edge">
<title>p22&#45;&gt;p31</title>
<path fill="none" stroke="black" d="M836.87,-422.31C853.38,-416.94 871.18,-409.39 885.6,-399 900.66,-388.16 912.8,-369.91 919.33,-358.72"/>
<polygon fill="black" stroke="black" points="922.46,-360.3 924.18,-349.84 916.31,-356.94 922.46,-360.3"/>
</g>
<!-- p30 -->
<g id="node35" class="node">
<title>p30</title>
<ellipse fill="black" stroke="black" cx="949.6" cy="-348" rx="1.8" ry="1.8"/>
</g>
<!-- p22&#45;&gt;p30 -->
<g id="edge32" class="edge">
<title>p22&#45;&gt;p30</title>
<path fill="none" stroke="black" d="M844.34,-424.55C865.41,-419.29 888.69,-411.24 907.6,-399 923.82,-388.51 937.05,-369.83 944.09,-358.52"/>
<polygon fill="black" stroke="black" points="947.12,-360.26 949.14,-349.86 941.08,-356.73 947.12,-360.26"/>
</g>
<!-- p29 -->
<g id="node36" class="node">
<title>p29</title>
<ellipse fill="black" stroke="black" cx="974.6" cy="-348" rx="1.8" ry="1.8"/>
</g>
<!-- p22&#45;&gt;p29 -->
<g id="edge33" class="edge">
<title>p22&#45;&gt;p29</title>
<path fill="none" stroke="black" d="M849.94,-426.93C876.25,-421.94 906.26,-413.45 930.6,-399 947.54,-388.94 961.42,-370.13 968.81,-358.66"/>
<polygon fill="black" stroke="black" points="971.95,-360.24 974.12,-349.87 965.95,-356.62 971.95,-360.24"/>
</g>
<!-- p28 -->
<g id="node37" class="node">
<title>p28</title>
<ellipse fill="black" stroke="black" cx="998.6" cy="-348" rx="1.8" ry="1.8"/>
</g>
<!-- p22&#45;&gt;p28 -->
<g id="edge34" class="edge">
<title>p22&#45;&gt;p28</title>
<path fill="none" stroke="black" d="M854.1,-429.38C886.17,-424.9 924.07,-416.12 954.6,-399 971.78,-389.37 985.58,-370.41 992.89,-358.81"/>
<polygon fill="black" stroke="black" points="996.08,-360.29 998.13,-349.89 990.05,-356.74 996.08,-360.29"/>
</g>
<!-- p27 -->
<g id="node38" class="node">
<title>p27</title>
<ellipse fill="black" stroke="black" cx="649.6" cy="-348" rx="1.8" ry="1.8"/>
</g>
<!-- p22&#45;&gt;p27 -->
<g id="edge35" class="edge">
<title>p22&#45;&gt;p27</title>
<path fill="none" stroke="black" d="M749.56,-419.64C736.02,-413.87 720.8,-406.74 707.6,-399 686.51,-386.64 681.27,-382.89 663.6,-366 661.08,-363.6 658.59,-360.75 656.42,-358.09"/>
<polygon fill="black" stroke="black" points="659.11,-355.85 650.29,-349.99 653.53,-360.08 659.11,-355.85"/>
</g>
<!-- p26 -->
<g id="node39" class="node">
<title>p26</title>
<ellipse fill="black" stroke="black" cx="674.6" cy="-348" rx="1.8" ry="1.8"/>
</g>
<!-- p22&#45;&gt;p26 -->
<g id="edge36" class="edge">
<title>p22&#45;&gt;p26</title>
<path fill="none" stroke="black" d="M758.92,-418.38C738.16,-405.86 709.8,-386.97 688.6,-366 686.13,-363.55 683.64,-360.7 681.47,-358.03"/>
<polygon fill="black" stroke="black" points="684.16,-355.79 675.3,-349.98 678.6,-360.05 684.16,-355.79"/>
</g>
<!-- p25 -->
<g id="node40" class="node">
<title>p25</title>
<ellipse fill="black" stroke="black" cx="699.6" cy="-348" rx="1.8" ry="1.8"/>
</g>
<!-- p22&#45;&gt;p25 -->
<g id="edge37" class="edge">
<title>p22&#45;&gt;p25</title>
<path fill="none" stroke="black" d="M767.63,-417.63C752.48,-404.26 730.99,-384.6 713.6,-366 711.22,-363.46 708.77,-360.58 706.59,-357.92"/>
<polygon fill="black" stroke="black" points="709.26,-355.65 700.32,-349.96 703.76,-359.98 709.26,-355.65"/>
</g>
<!-- p24 -->
<g id="node41" class="node">
<title>p24</title>
<ellipse fill="black" stroke="black" cx="724.6" cy="-348" rx="1.8" ry="1.8"/>
</g>
<!-- p22&#45;&gt;p24 -->
<g id="edge38" class="edge">
<title>p22&#45;&gt;p24</title>
<path fill="none" stroke="black" d="M774.35,-417.21C761.47,-399.54 741.66,-372.39 731.36,-358.26"/>
<polygon fill="black" stroke="black" points="733.88,-355.78 725.16,-349.77 728.22,-359.91 733.88,-355.78"/>
</g>
<!-- p23 -->
<g id="node42" class="node">
<title>p23</title>
<ellipse fill="black" stroke="black" cx="749.6" cy="-348" rx="1.8" ry="1.8"/>
</g>
<!-- p22&#45;&gt;p23 -->
<g id="edge39" class="edge">
<title>p22&#45;&gt;p23</title>
<path fill="none" stroke="black" d="M779.11,-416.8C771.61,-399.57 760.31,-373.61 754.1,-359.33"/>
<polygon fill="black" stroke="black" points="757.27,-357.85 750.07,-350.08 750.85,-360.65 757.27,-357.85"/>
</g>
<!-- p5 -->
<g id="node9" class="node">
<title>p5</title>
<ellipse fill="black" stroke="black" cx="1344.6" cy="-638.8" rx="3.6" ry="3.6"/>
<text text-anchor="middle" x="1276" y="-646.2" font-family="Times,serif" font-size="14.00">Channel.fromPath</text>
</g>
<!-- p6 -->
<g id="node10" class="node">
<title>p6</title>
<ellipse fill="none" stroke="black" cx="1344.6" cy="-594.6" rx="3.5" ry="3.5"/>
<text text-anchor="middle" x="1317.6" y="-601.9" font-family="Times,serif" font-size="14.00">collect</text>
</g>
<!-- p5&#45;&gt;p6 -->
<g id="edge6" class="edge">
<title>p5&#45;&gt;p6</title>
<path fill="none" stroke="black" d="M1344.6,-635.03C1344.6,-629.73 1344.6,-617.83 1344.6,-608.48"/>
<polygon fill="black" stroke="black" points="1348.1,-608.43 1344.6,-598.43 1341.1,-608.43 1348.1,-608.43"/>
</g>
<!-- p7 -->
<g id="node11" class="node">
<title>p7</title>
<ellipse fill="black" stroke="black" cx="1344.6" cy="-522" rx="1.8" ry="1.8"/>
</g>
<!-- p6&#45;&gt;p7 -->
<g id="edge7" class="edge">
<title>p6&#45;&gt;p7</title>
<path fill="none" stroke="black" d="M1344.6,-590.92C1344.6,-581.68 1344.6,-550.8 1344.6,-534.05"/>
<polygon fill="black" stroke="black" points="1348.1,-533.96 1344.6,-523.96 1341.1,-533.96 1348.1,-533.96"/>
<text text-anchor="middle" x="1374.1" y="-561.8" font-family="Times,serif" font-size="14.00">fasta_ch</text>
</g>
<!-- p8 -->
<g id="node12" class="node">
<title>p8</title>
<ellipse fill="black" stroke="black" cx="133.6" cy="-522" rx="3.6" ry="3.6"/>
<text text-anchor="middle" x="65" y="-529.4" font-family="Times,serif" font-size="14.00">Channel.fromPath</text>
</g>
<!-- p9 -->
<g id="node13" class="node">
<title>p9</title>
<ellipse fill="none" stroke="black" cx="133.6" cy="-435" rx="3.5" ry="3.5"/>
<text text-anchor="middle" x="106.6" y="-442.3" font-family="Times,serif" font-size="14.00">collect</text>
</g>
<!-- p8&#45;&gt;p9 -->
<g id="edge8" class="edge">
<title>p8&#45;&gt;p9</title>
<path fill="none" stroke="black" d="M133.6,-518.17C133.6,-507.49 133.6,-469.19 133.6,-448.87"/>
<polygon fill="black" stroke="black" points="137.1,-448.58 133.6,-438.58 130.1,-448.58 137.1,-448.58"/>
</g>
<!-- p9&#45;&gt;p39 -->
<g id="edge9" class="edge">
<title>p9&#45;&gt;p39</title>
<path fill="none" stroke="black" d="M132.59,-431.29C129.68,-422.99 122.29,-397.68 134.6,-384 146.71,-370.53 239.11,-360.86 313.91,-355.14"/>
<polygon fill="black" stroke="black" points="314.63,-358.6 324.34,-354.36 314.11,-351.62 314.63,-358.6"/>
<text text-anchor="middle" x="197.1" y="-387.8" font-family="Times,serif" font-size="14.00">transcriptome_ch</text>
</g>
<!-- p41 -->
<g id="node45" class="node">
<title>p41</title>
<ellipse fill="black" stroke="black" cx="424.6" cy="-283.5" rx="1.8" ry="1.8"/>
</g>
<!-- p39&#45;&gt;p41 -->
<g id="edge44" class="edge">
<title>p39&#45;&gt;p41</title>
<path fill="none" stroke="black" d="M415.15,-329.92C417.42,-319.04 420.28,-305.26 422.26,-295.74"/>
<polygon fill="black" stroke="black" points="425.74,-296.2 424.35,-285.69 418.89,-294.77 425.74,-296.2"/>
</g>
<!-- p47 -->
<g id="node46" class="node">
<title>p47</title>
<ellipse fill="none" stroke="black" cx="882.6" cy="-258.5" rx="3.5" ry="3.5"/>
<text text-anchor="middle" x="855.6" y="-265.8" font-family="Times,serif" font-size="14.00">collect</text>
</g>
<!-- p39&#45;&gt;p47 -->
<g id="edge45" class="edge">
<title>p39&#45;&gt;p47</title>
<path fill="none" stroke="black" d="M476.1,-335.02C588.3,-314.17 812.83,-272.46 869.42,-261.95"/>
<polygon fill="black" stroke="black" points="870.26,-265.35 879.45,-260.08 868.98,-258.47 870.26,-265.35"/>
</g>
<!-- p40 -->
<g id="node47" class="node">
<title>p40</title>
<ellipse fill="black" stroke="black" cx="399.6" cy="-283.5" rx="1.8" ry="1.8"/>
</g>
<!-- p39&#45;&gt;p40 -->
<g id="edge46" class="edge">
<title>p39&#45;&gt;p40</title>
<path fill="none" stroke="black" d="M408.32,-329.92C406.23,-319.04 403.59,-305.26 401.76,-295.74"/>
<polygon fill="black" stroke="black" points="405.15,-294.85 399.83,-285.69 398.28,-296.17 405.15,-294.85"/>
</g>
<!-- p10 -->
<g id="node15" class="node">
<title>p10</title>
<ellipse fill="black" stroke="black" cx="290.6" cy="-594.6" rx="3.6" ry="3.6"/>
<text text-anchor="middle" x="222" y="-602" font-family="Times,serif" font-size="14.00">Channel.fromPath</text>
</g>
<!-- p11 -->
<g id="node16" class="node">
<title>p11</title>
<ellipse fill="none" stroke="black" cx="290.6" cy="-522" rx="3.5" ry="3.5"/>
<text text-anchor="middle" x="263.6" y="-529.3" font-family="Times,serif" font-size="14.00">collect</text>
</g>
<!-- p10&#45;&gt;p11 -->
<g id="edge10" class="edge">
<title>p10&#45;&gt;p11</title>
<path fill="none" stroke="black" d="M290.6,-590.92C290.6,-582.01 290.6,-552.98 290.6,-535.89"/>
<polygon fill="black" stroke="black" points="294.1,-535.68 290.6,-525.68 287.1,-535.68 294.1,-535.68"/>
</g>
<!-- p11&#45;&gt;p22 -->
<g id="edge11" class="edge">
<title>p11&#45;&gt;p22</title>
<path fill="none" stroke="black" d="M293.65,-519.82C309.84,-513.61 387.47,-484.49 453.6,-471 539.47,-453.49 639.69,-444.46 707.58,-440"/>
<polygon fill="black" stroke="black" points="708.01,-443.48 717.77,-439.35 707.57,-436.5 708.01,-443.48"/>
<text text-anchor="middle" x="485.1" y="-474.8" font-family="Times,serif" font-size="14.00">index_ch</text>
</g>
<!-- p11&#45;&gt;p39 -->
<g id="edge40" class="edge">
<title>p11&#45;&gt;p39</title>
<path fill="none" stroke="black" d="M290.61,-518.48C290.79,-506.2 292.95,-451.78 316.6,-417 329.89,-397.45 350.77,-381.61 369.57,-370.15"/>
<polygon fill="black" stroke="black" points="371.45,-373.11 378.31,-365.04 367.91,-367.07 371.45,-373.11"/>
<text text-anchor="middle" x="348.1" y="-431.3" font-family="Times,serif" font-size="14.00">index_ch</text>
</g>
<!-- p12 -->
<g id="node17" class="node">
<title>p12</title>
<ellipse fill="black" stroke="black" cx="1200.6" cy="-638.8" rx="3.6" ry="3.6"/>
<text text-anchor="middle" x="1132" y="-646.2" font-family="Times,serif" font-size="14.00">Channel.fromPath</text>
</g>
<!-- p13 -->
<g id="node18" class="node">
<title>p13</title>
<ellipse fill="none" stroke="black" cx="1200.6" cy="-594.6" rx="3.5" ry="3.5"/>
<text text-anchor="middle" x="1173.6" y="-601.9" font-family="Times,serif" font-size="14.00">collect</text>
</g>
<!-- p12&#45;&gt;p13 -->
<g id="edge12" class="edge">
<title>p12&#45;&gt;p13</title>
<path fill="none" stroke="black" d="M1200.6,-635.03C1200.6,-629.73 1200.6,-617.83 1200.6,-608.48"/>
<polygon fill="black" stroke="black" points="1204.1,-608.43 1200.6,-598.43 1197.1,-608.43 1204.1,-608.43"/>
</g>
<!-- p13&#45;&gt;p17 -->
<g id="edge13" class="edge">
<title>p13&#45;&gt;p17</title>
<path fill="none" stroke="black" d="M1199.55,-591.08C1196.87,-584.83 1189.17,-568.39 1178.6,-558 1173.4,-552.89 1167.32,-548.23 1161.07,-544.09"/>
<polygon fill="black" stroke="black" points="1162.85,-541.07 1152.51,-538.77 1159.16,-547.02 1162.85,-541.07"/>
<text text-anchor="middle" x="1250.1" y="-561.8" font-family="Times,serif" font-size="14.00">contaminants_ch</text>
</g>
<!-- p17&#45;&gt;p22 -->
<g id="edge18" class="edge">
<title>p17&#45;&gt;p22</title>
<path fill="none" stroke="black" d="M1072.64,-506.75C1037.53,-496.3 988.25,-482.06 944.6,-471 913.54,-463.13 878.79,-455.33 849.81,-449.09"/>
<polygon fill="black" stroke="black" points="850.33,-445.62 839.82,-446.95 848.86,-452.47 850.33,-445.62"/>
</g>
<!-- p45 -->
<g id="node23" class="node">
<title>p45</title>
<ellipse fill="none" stroke="black" cx="1063.6" cy="-308.5" rx="3.5" ry="3.5"/>
<text text-anchor="middle" x="1036.6" y="-315.8" font-family="Times,serif" font-size="14.00">collect</text>
</g>
<!-- p17&#45;&gt;p45 -->
<g id="edge19" class="edge">
<title>p17&#45;&gt;p45</title>
<path fill="none" stroke="black" d="M1117.28,-503.89C1114.29,-483.14 1108.5,-447.18 1100.6,-417 1091.33,-381.58 1076.06,-341.05 1068.36,-321.41"/>
<polygon fill="black" stroke="black" points="1071.61,-320.11 1064.66,-312.11 1065.11,-322.7 1071.61,-320.11"/>
</g>
<!-- p18 -->
<g id="node24" class="node">
<title>p18</title>
<ellipse fill="black" stroke="black" cx="1089.6" cy="-435" rx="1.8" ry="1.8"/>
</g>
<!-- p17&#45;&gt;p18 -->
<g id="edge20" class="edge">
<title>p17&#45;&gt;p18</title>
<path fill="none" stroke="black" d="M1112.52,-504C1110.23,-498.31 1107.73,-491.91 1105.6,-486 1100.8,-472.64 1095.92,-457.03 1092.83,-446.85"/>
<polygon fill="black" stroke="black" points="1096.18,-445.83 1089.96,-437.25 1089.47,-447.83 1096.18,-445.83"/>
</g>
<!-- p44 -->
<g id="node48" class="node">
<title>p44</title>
<ellipse fill="none" stroke="black" cx="940.6" cy="-283.5" rx="3.5" ry="3.5"/>
<text text-anchor="middle" x="923.6" y="-290.8" font-family="Times,serif" font-size="14.00">mix</text>
</g>
<!-- p42&#45;&gt;p44 -->
<g id="edge47" class="edge">
<title>p42&#45;&gt;p44</title>
<path fill="none" stroke="black" d="M1023.66,-387.93C1023.72,-379.05 1022.89,-349.12 1009.6,-330 995.37,-309.53 968.68,-295.89 952.99,-289.24"/>
<polygon fill="black" stroke="black" points="954.12,-285.92 943.53,-285.51 951.55,-292.43 954.12,-285.92"/>
</g>
<!-- p46 -->
<g id="node49" class="node">
<title>p46</title>
<ellipse fill="none" stroke="black" cx="940.6" cy="-233.4" rx="3.5" ry="3.5"/>
<text text-anchor="middle" x="923.6" y="-218.7" font-family="Times,serif" font-size="14.00">mix</text>
</g>
<!-- p45&#45;&gt;p46 -->
<g id="edge50" class="edge">
<title>p45&#45;&gt;p46</title>
<path fill="none" stroke="black" d="M1061.03,-305.97C1046.96,-297.61 978.9,-257.16 951.78,-241.05"/>
<polygon fill="black" stroke="black" points="953.54,-238.02 943.15,-235.92 949.96,-244.04 953.54,-238.02"/>
</g>
<!-- p19 -->
<g id="node25" class="node">
<title>p19</title>
<ellipse fill="black" stroke="black" cx="812.6" cy="-522" rx="3.6" ry="3.6"/>
</g>
<!-- p19&#45;&gt;p22 -->
<g id="edge21" class="edge">
<title>p19&#45;&gt;p22</title>
<path fill="none" stroke="black" d="M811.73,-518.17C809.13,-509.65 801.13,-483.51 794.85,-462.98"/>
<polygon fill="black" stroke="black" points="798.12,-461.71 791.85,-453.17 791.43,-463.76 798.12,-461.71"/>
<text text-anchor="middle" x="871.1" y="-474.8" font-family="Times,serif" font-size="14.00">star_ignore_sjdbgtf</text>
</g>
<!-- p20 -->
<g id="node26" class="node">
<title>p20</title>
<ellipse fill="black" stroke="black" cx="594.6" cy="-522" rx="3.6" ry="3.6"/>
</g>
<!-- p20&#45;&gt;p22 -->
<g id="edge22" class="edge">
<title>p20&#45;&gt;p22</title>
<path fill="none" stroke="black" d="M594.76,-518.21C595.41,-509.67 598.59,-483.74 613.6,-471 628.62,-458.25 672.21,-449.48 711.87,-443.91"/>
<polygon fill="black" stroke="black" points="712.41,-447.36 721.85,-442.56 711.47,-440.43 712.41,-447.36"/>
<text text-anchor="middle" x="660.6" y="-474.8" font-family="Times,serif" font-size="14.00">seq_platform</text>
</g>
<!-- p21 -->
<g id="node27" class="node">
<title>p21</title>
<ellipse fill="black" stroke="black" cx="711.6" cy="-522" rx="3.6" ry="3.6"/>
</g>
<!-- p21&#45;&gt;p22 -->
<g id="edge23" class="edge">
<title>p21&#45;&gt;p22</title>
<path fill="none" stroke="black" d="M711.06,-518.43C709.56,-510.52 706.11,-486.23 716.6,-471 721.15,-464.39 727.33,-458.97 734.14,-454.54"/>
<polygon fill="black" stroke="black" points="736.1,-457.45 743.03,-449.44 732.62,-451.38 736.1,-457.45"/>
<text text-anchor="middle" x="755.6" y="-474.8" font-family="Times,serif" font-size="14.00">seq_center</text>
</g>
<!-- p43&#45;&gt;p44 -->
<g id="edge48" class="edge">
<title>p43&#45;&gt;p44</title>
<path fill="none" stroke="black" d="M852.18,-344.33C854.4,-340.75 858.71,-334.34 863.6,-330 883.78,-312.1 912.03,-297.54 928.1,-290.03"/>
<polygon fill="black" stroke="black" points="930,-293.02 937.69,-285.72 927.13,-286.63 930,-293.02"/>
</g>
<!-- p37 -->
<g id="node43" class="node">
<title>p37</title>
<ellipse fill="black" stroke="black" cx="444.6" cy="-435" rx="3.6" ry="3.6"/>
</g>
<!-- p37&#45;&gt;p39 -->
<g id="edge42" class="edge">
<title>p37&#45;&gt;p39</title>
<path fill="none" stroke="black" d="M442.38,-431.97C435.66,-425.79 415.84,-407.1 412.6,-399 409.8,-391.99 408.78,-383.96 408.67,-376.43"/>
<polygon fill="black" stroke="black" points="412.17,-376.37 409.01,-366.26 405.17,-376.14 412.17,-376.37"/>
<text text-anchor="middle" x="471.6" y="-387.8" font-family="Times,serif" font-size="14.00">alignment_mode</text>
</g>
<!-- p38 -->
<g id="node44" class="node">
<title>p38</title>
<ellipse fill="black" stroke="black" cx="552.6" cy="-435" rx="3.6" ry="3.6"/>
</g>
<!-- p38&#45;&gt;p39 -->
<g id="edge43" class="edge">
<title>p38&#45;&gt;p39</title>
<path fill="none" stroke="black" d="M552.21,-431.25C550.88,-422.85 545.7,-397.27 530.6,-384 519.99,-374.68 507.01,-367.83 493.57,-362.81"/>
<polygon fill="black" stroke="black" points="494.32,-359.37 483.72,-359.46 492.07,-365.99 494.32,-359.37"/>
<text text-anchor="middle" x="570.1" y="-387.8" font-family="Times,serif" font-size="14.00">lib_type</text>
</g>
<!-- p48 -->
<g id="node50" class="node">
<title>p48</title>
<ellipse fill="none" stroke="black" cx="934.6" cy="-175.3" rx="3.5" ry="3.5"/>
<text text-anchor="middle" x="917.6" y="-160.6" font-family="Times,serif" font-size="14.00">mix</text>
</g>
<!-- p47&#45;&gt;p48 -->
<g id="edge52" class="edge">
<title>p47&#45;&gt;p48</title>
<path fill="none" stroke="black" d="M884.1,-255.16C890.42,-245.29 915.13,-206.7 927.48,-187.41"/>
<polygon fill="black" stroke="black" points="930.55,-189.12 932.99,-178.81 924.65,-185.34 930.55,-189.12"/>
</g>
<!-- p44&#45;&gt;p46 -->
<g id="edge49" class="edge">
<title>p44&#45;&gt;p46</title>
<path fill="none" stroke="black" d="M940.6,-279.91C940.6,-273.9 940.6,-258.65 940.6,-247.45"/>
<polygon fill="black" stroke="black" points="944.1,-247.24 940.6,-237.24 937.1,-247.24 944.1,-247.24"/>
</g>
<!-- p46&#45;&gt;p48 -->
<g id="edge51" class="edge">
<title>p46&#45;&gt;p48</title>
<path fill="none" stroke="black" d="M940.31,-229.69C939.54,-222.46 937.38,-202.33 935.95,-188.96"/>
<polygon fill="black" stroke="black" points="939.42,-188.42 934.87,-178.85 932.46,-189.16 939.42,-188.42"/>
</g>
<!-- p49 -->
<g id="node51" class="node">
<title>p49</title>
<ellipse fill="none" stroke="black" cx="940.6" cy="-131.2" rx="3.5" ry="3.5"/>
<text text-anchor="middle" x="913.6" y="-138.5" font-family="Times,serif" font-size="14.00">collect</text>
</g>
<!-- p48&#45;&gt;p49 -->
<g id="edge53" class="edge">
<title>p48&#45;&gt;p49</title>
<path fill="none" stroke="black" d="M934.99,-171.54C935.75,-166.25 937.44,-154.38 938.77,-145.05"/>
<polygon fill="black" stroke="black" points="942.25,-145.42 940.2,-135.03 935.32,-144.43 942.25,-145.42"/>
</g>
<!-- p54 -->
<g id="node52" class="node">
<title>p54</title>
<ellipse fill="none" stroke="black" cx="982.6" cy="-58.6" rx="56.59" ry="18"/>
<text text-anchor="middle" x="982.6" y="-54.9" font-family="Times,serif" font-size="14.00">MULTIQC</text>
</g>
<!-- p49&#45;&gt;p54 -->
<g id="edge54" class="edge">
<title>p49&#45;&gt;p54</title>
<path fill="none" stroke="black" d="M942,-127.85C945.96,-121.19 957.62,-101.59 967.44,-85.09"/>
<polygon fill="black" stroke="black" points="970.53,-86.73 972.64,-76.35 964.52,-83.15 970.53,-86.73"/>
</g>
<!-- p58 -->
<g id="node56" class="node">
<title>p58</title>
<ellipse fill="black" stroke="black" cx="945.6" cy="-1.8" rx="1.8" ry="1.8"/>
</g>
<!-- p54&#45;&gt;p58 -->
<g id="edge59" class="edge">
<title>p54&#45;&gt;p58</title>
<path fill="none" stroke="black" d="M971.3,-40.86C964.98,-31.5 957.32,-20.16 952.02,-12.31"/>
<polygon fill="black" stroke="black" points="954.75,-10.1 946.26,-3.77 948.95,-14.02 954.75,-10.1"/>
</g>
<!-- p57 -->
<g id="node57" class="node">
<title>p57</title>
<ellipse fill="black" stroke="black" cx="970.6" cy="-1.8" rx="1.8" ry="1.8"/>
</g>
<!-- p54&#45;&gt;p57 -->
<g id="edge60" class="edge">
<title>p54&#45;&gt;p57</title>
<path fill="none" stroke="black" d="M978.87,-40.56C976.94,-31.76 974.65,-21.3 972.97,-13.61"/>
<polygon fill="black" stroke="black" points="976.37,-12.78 970.81,-3.76 969.53,-14.28 976.37,-12.78"/>
</g>
<!-- p56 -->
<g id="node58" class="node">
<title>p56</title>
<ellipse fill="black" stroke="black" cx="995.6" cy="-1.8" rx="1.8" ry="1.8"/>
</g>
<!-- p54&#45;&gt;p56 -->
<g id="edge61" class="edge">
<title>p54&#45;&gt;p56</title>
<path fill="none" stroke="black" d="M986.64,-40.56C988.73,-31.76 991.21,-21.3 993.03,-13.61"/>
<polygon fill="black" stroke="black" points="996.47,-14.3 995.37,-3.76 989.66,-12.68 996.47,-14.3"/>
</g>
<!-- p55 -->
<g id="node59" class="node">
<title>p55</title>
<ellipse fill="black" stroke="black" cx="1020.6" cy="-1.8" rx="1.8" ry="1.8"/>
</g>
<!-- p54&#45;&gt;p55 -->
<g id="edge62" class="edge">
<title>p54&#45;&gt;p55</title>
<path fill="none" stroke="black" d="M994.21,-40.86C1000.78,-31.39 1008.74,-19.9 1014.19,-12.04"/>
<polygon fill="black" stroke="black" points="1017.1,-13.99 1019.92,-3.77 1011.35,-10 1017.1,-13.99"/>
</g>
<!-- p51&#45;&gt;p54 -->
<g id="edge56" class="edge">
<title>p51&#45;&gt;p54</title>
<path fill="none" stroke="black" d="M967.21,-127.52C968.73,-120.78 972.87,-102.55 976.46,-86.68"/>
<polygon fill="black" stroke="black" points="979.92,-87.25 978.72,-76.73 973.09,-85.71 979.92,-87.25"/>
</g>
<!-- p52 -->
<g id="node54" class="node">
<title>p52</title>
<ellipse fill="black" stroke="black" cx="999.6" cy="-131.2" rx="3.6" ry="3.6"/>
</g>
<!-- p52&#45;&gt;p54 -->
<g id="edge57" class="edge">
<title>p52&#45;&gt;p54</title>
<path fill="none" stroke="black" d="M998.95,-127.52C997.33,-120.78 992.94,-102.55 989.12,-86.68"/>
<polygon fill="black" stroke="black" points="992.47,-85.63 986.72,-76.73 985.66,-87.27 992.47,-85.63"/>
<text text-anchor="middle" x="1068.6" y="-98.4" font-family="Times,serif" font-size="14.00">extra_multiqc_config</text>
</g>
<!-- p53 -->
<g id="node55" class="node">
<title>p53</title>
<ellipse fill="black" stroke="black" cx="1170.6" cy="-131.2" rx="3.6" ry="3.6"/>
</g>
<!-- p53&#45;&gt;p54 -->
<g id="edge58" class="edge">
<title>p53&#45;&gt;p54</title>
<path fill="none" stroke="black" d="M1169.59,-127.44C1166.96,-120.66 1159.2,-103.11 1146.6,-94.6 1117.97,-75.27 1080.65,-66.34 1048.84,-62.32"/>
<polygon fill="black" stroke="black" points="1049.05,-58.82 1038.73,-61.18 1048.27,-65.78 1049.05,-58.82"/>
<text text-anchor="middle" x="1205.1" y="-98.4" font-family="Times,serif" font-size="14.00">multiqc_logo</text>
</g>
</g>
</svg>
